<?xml version="1.0" encoding="UTF-8" standalone="no"?><!DOCTYPE svg PUBLIC "-//W3C//DTD SVG 1.1//EN" "http://www.w3.org/Graphics/SVG/1.1/DTD/svg11.dtd"><!--Generated by Intaglio, www.PurgatoryDesign.com--><svg version="1.1" viewBox="6,26,376,181" xmlns="http://www.w3.org/2000/svg" xmlns:xlink="http://www.w3.org/1999/xlink"><defs><path id="arrow 4" d="M-7,-4 3,0 -7,4"></path></defs><g><path fill="none" stroke="#000" d="M63.125,128.25 L68.125,128.25 L68.125,139.25 L63.125,139.25 Z"></path><path fill="none" stroke="#000" stroke-linecap="square" d="M71.125,134.25 L61.125,134.25"></path><path fill="none" stroke="#000" stroke-linecap="square" d="M76.125,129.25 L71.125,134.25"></path><path fill="none" stroke="#000" stroke-linecap="square" d="M61.125,134.25 L57.125,138.25"></path></g><g><path fill="none" stroke="#000" stroke-linecap="square" d="M49.5,110.75 L42.5,117.75"></path><path fill="none" stroke="#000" stroke-linecap="square" d="M42.5,117.75 L49.5,124.75"></path></g><g><path fill="none" stroke="#000" stroke-linecap="square" d="M50.0356,142.75 L43.0356,149.75"></path><path fill="none" stroke="#000" stroke-linecap="square" d="M43.0356,149.75 L50.0356,156.75"></path></g><text font-family="Geneva" font-size="12" text-anchor="middle" transform="matrix(1,0,-0,1,37.375,122.25)" xml:space="preserve"><tspan>N</tspan></text><path fill="none" stroke="#000" stroke-linecap="square" d="M65.625,140 L65.625,160"></path><path fill="none" stroke="#000" stroke-linecap="square" d="M65.625,149.875 L43.625,149.875"></path><path fill-rule="evenodd" stroke="#000" d="M67.5,149.875 C67.5,150.703,66.6605,151.375,65.625,151.375 C64.5895,151.375,63.75,150.703,63.75,149.875 C63.75,149.047,64.5895,148.375,65.625,148.375 C66.6605,148.375,67.5,149.047,67.5,149.875 C67.5,149.875,67.5,149.875,67.5,149.875 Z"></path><path fill="none" stroke="#000" stroke-linecap="square" d="M83.875,117.75 L42.625,117.75"></path><path fill="none" stroke="#000" stroke-linecap="square" d="M129.125,117.5 L115.125,117.5"></path><path fill="none" stroke="#000" stroke-linecap="square" d="M65.625,98 L65.625,128"></path><path fill="none" stroke="#000" stroke-linecap="square" d="M118.625,98 L65.625,98"></path><path fill="none" stroke="#000" stroke-linecap="square" d="M171.625,98 L171.625,118"></path><path fill="none" stroke="#000" stroke-linecap="square" d="M171.625,98 L123.625,98"></path><path fill-rule="evenodd" stroke="#000" d="M67.5,117.625 C67.5,118.453,66.6605,119.125,65.625,119.125 C64.5895,119.125,63.75,118.453,63.75,117.625 C63.75,116.797,64.5895,116.125,65.625,116.125 C66.6605,116.125,67.5,116.797,67.5,117.625 C67.5,117.625,67.5,117.625,67.5,117.625 Z"></path><path fill-rule="evenodd" stroke="#000" d="M173.5,116.625 C173.5,117.453,172.661,118.125,171.625,118.125 C170.589,118.125,169.75,117.453,169.75,116.625 C169.75,115.797,170.589,115.125,171.625,115.125 C172.661,115.125,173.5,115.797,173.5,116.625 C173.5,116.625,173.5,116.625,173.5,116.625 Z"></path><text font-family="Geneva" font-size="9" text-anchor="middle" transform="matrix(1,0,-0,1,51.5356,136.25)" xml:space="preserve"><tspan>V1</tspan></text><text font-family="Geneva" font-size="9" text-anchor="middle" transform="matrix(1,0,-0,1,101.125,112.375)" xml:space="preserve"><tspan>R1A</tspan></text><text font-family="Geneva" font-size="9" text-anchor="middle" transform="matrix(1,0,-0,1,144,112.375)" xml:space="preserve"><tspan>R1B</tspan></text><text font-family="Geneva" font-size="9" text-anchor="middle" transform="matrix(1,0,-0,1,110.625,94.5)" xml:space="preserve"><tspan>C1</tspan></text><text font-family="Geneva" font-size="9" text-anchor="middle" transform="matrix(1,0,-0,1,163.125,93.5)" xml:space="preserve"><tspan>1.5 µF 250V JS</tspan></text><text font-family="Geneva" font-size="9" text-anchor="middle" transform="matrix(1,0,-0,1,195.625,111)" xml:space="preserve"><tspan>R2</tspan></text><text font-family="Geneva" font-size="9" text-anchor="middle" transform="matrix(1,0,-0,1,101.125,130.5)" xml:space="preserve"><tspan>120kΩ</tspan></text><text font-family="Geneva" font-size="9" text-anchor="middle" transform="matrix(1,0,-0,1,198.125,128.875)" xml:space="preserve"><tspan>47Ω 2W</tspan></text><text font-family="Geneva" font-size="9" text-anchor="middle" transform="matrix(1,0,-0,1,145.625,129.5)" xml:space="preserve"><tspan>120kΩ</tspan></text><path fill="none" stroke="#000" stroke-linecap="square" d="M241.625,116.75 L212.625,116.75"></path><path fill="none" stroke="#000" stroke-linecap="square" d="M349.125,117 L256.625,117"></path><path fill="none" stroke="#000" stroke-linecap="square" d="M316.125,88 L316.125,117.5"></path><path fill="none" stroke="#000" stroke-linecap="square" d="M281.625,117 L281.625,128"></path><path fill="none" stroke="#000" stroke-linecap="square" d="M316,48 L316,61"></path><path fill="none" stroke="#000" stroke-linecap="square" d="M342.125,47 L318.625,47"></path><path fill-rule="evenodd" stroke="#000" d="M232.5,116.75 C232.5,117.578,231.661,118.25,230.625,118.25 C229.589,118.25,228.75,117.578,228.75,116.75 C228.75,115.922,229.589,115.25,230.625,115.25 C231.661,115.25,232.5,115.922,232.5,116.75 C232.5,116.75,232.5,116.75,232.5,116.75 Z"></path><path fill-rule="evenodd" stroke="#000" d="M283.5,117.5 C283.5,118.328,282.661,119,281.625,119 C280.589,119,279.75,118.328,279.75,117.5 C279.75,116.672,280.589,116,281.625,116 C282.661,116,283.5,116.672,283.5,117.5 C283.5,117.5,283.5,117.5,283.5,117.5 Z"></path><path fill-rule="evenodd" stroke="#000" d="M318,117.5 C318,118.328,317.161,119,316.125,119 C315.089,119,314.25,118.328,314.25,117.5 C314.25,116.672,315.089,116,316.125,116 C317.161,116,318,116.672,318,117.5 C318,117.5,318,117.5,318,117.5 Z"></path><text font-family="Geneva" font-size="9" text-anchor="middle" transform="matrix(1,0,-0,1,243.5,135.5)" xml:space="preserve"><tspan>D1</tspan></text><text font-family="Geneva" font-size="9" text-anchor="middle" transform="matrix(1,0,-0,1,247.75,108.75)" xml:space="preserve"><tspan>D2</tspan></text><text font-family="Geneva" font-size="9" text-anchor="middle" transform="matrix(1,0,-0,1,280.875,155.875)" xml:space="preserve"><tspan>C2 100 µF</tspan><tspan y="12" x="0">50V</tspan></text><text font-family="Geneva" font-size="9" text-anchor="middle" transform="matrix(1,0,-0,1,343.062,148)" xml:space="preserve"><tspan>27V 3W</tspan></text><text font-family="Geneva" font-size="9" text-anchor="middle" transform="matrix(1,0,-0,1,334.125,137.5)" xml:space="preserve"><tspan>ZD6</tspan></text><text fill="#d00" font-family="Geneva" font-size="9" text-anchor="middle" transform="matrix(1,0,-0,1,364.5,115.25)" xml:space="preserve"><tspan>V++</tspan><tspan y="12" x="0">27 VDC</tspan></text><path fill="none" stroke="#000" stroke-linecap="square" d="M342.625,47 L342.625,58"></path><path fill-rule="evenodd" stroke="#000" d="M343.625,46.5 C343.625,47.3284,342.953,48,342.125,48 C341.297,48,340.625,47.3284,340.625,46.5 C340.625,45.6716,341.297,45,342.125,45 C342.953,45,343.625,45.6716,343.625,46.5 C343.625,46.5,343.625,46.5,343.625,46.5 Z"></path><path fill-rule="evenodd" stroke="#000" d="M317.625,46.5 C317.625,47.3284,316.953,48,316.125,48 C315.297,48,314.625,47.3284,314.625,46.5 C314.625,45.6716,315.297,45,316.125,45 C316.953,45,317.625,45.6716,317.625,46.5 C317.625,46.5,317.625,46.5,317.625,46.5 Z"></path><text font-family="Geneva" font-size="9" text-anchor="middle" transform="matrix(1,0,-0,1,326.625,56.5)" xml:space="preserve"><tspan>C4</tspan></text><text font-family="Geneva" font-size="9" text-anchor="middle" transform="matrix(1,0,-0,1,333.875,85.25)" xml:space="preserve"><tspan>1.5kΩ</tspan><tspan y="12" x="0">2W</tspan></text><text font-family="Geneva" font-size="9" text-anchor="end" transform="matrix(1,0,-0,1,312.125,79.5)" xml:space="preserve"><tspan>R24</tspan></text><text font-family="Geneva" font-size="9" text-anchor="middle" transform="matrix(1,0,-0,1,362.125,56)" xml:space="preserve"><tspan>220µF</tspan><tspan y="12" x="0">25V</tspan></text><text fill="#f30" font-family="Geneva" font-size="9" text-anchor="middle" transform="matrix(1,0,-0,1,292.75,50.5)" xml:space="preserve"><tspan>V+ 5VDC</tspan></text><text fill="#963" font-family="Geneva" font-size="9" text-anchor="middle" transform="matrix(1,0,-0,1,76.625,205.5)" xml:space="preserve"><tspan>TSK-1835A</tspan></text><text fill="#963" font-family="Geneva" font-size="9" text-anchor="middle" transform="matrix(1,0,-0,1,145.625,205.5)" xml:space="preserve"><tspan>05/02/21</tspan></text><g><path fill="none" stroke="#000" d="M318.732,85.7776 L313.625,81.9632"></path><path fill="none" stroke="#000" d="M318.732,78.1487 L313.625,81.9632"></path><path fill="none" stroke="#000" d="M318.732,78.1487 L313.625,74.3342"></path><path fill="none" stroke="#000" d="M318.732,70.5198 L313.625,74.3342"></path><path fill="none" stroke="#000" d="M319.125,70.5198 L314.018,66.7052"></path><path fill="none" stroke="#000" d="M319.125,62.8908 L314.018,66.7052"></path><path fill="none" stroke="#000" d="M318.732,85.7776 L315.589,88.125"></path><path fill="none" stroke="#000" d="M319.125,62.8908 L315.589,60.25"></path></g><g><path fill="none" stroke="#000" d="M336.838,58.5779 L348.175,58.5779"></path><path fill="none" stroke="#000" d="M333.714,63.7992 L351.5,63.7992"></path><path fill="none" stroke="#000" d="M333.899,64 L333.899,57.5738"></path><path fill="none" stroke="#000" d="M351.078,63.7992 L351.078,57.3729"></path><text font-family="Geneva" font-size="10" text-anchor="middle" transform="matrix(0.738869,0,-0,0.803279,336.915,56.5697)" xml:space="preserve"><tspan>+</tspan></text></g><g><path fill="none" stroke="#000" d="M336.125,69.5 L349.125,69.5"></path><path fill="none" stroke="#000" d="M336.125,69.5 L342.625,76"></path><path fill="none" stroke="#000" d="M348.875,70 L342.375,76.5"></path><path fill="none" stroke="#000" d="M342.625,69.5 L342.625,64"></path></g><g><g><path fill="none" stroke="#000" stroke-width="2.5" d="M315.98,129.13 L315.98,136.02"></path><use xlink:href="#arrow 4" fill="#000" transform="matrix(1.0381e-07,-1.375,1.375,1.0381e-07,315.98,129.13)"></use><path fill="none" stroke="#000" d="M311.931,126.48 L320.319,126.48"></path><path fill="none" stroke="#000" d="M316.125,126.48 L316.125,118"></path><path fill="none" stroke="#000" d="M315.98,144.5 L315.98,136.02"></path></g><path fill="none" stroke="#000" d="M311.931,126.48 L308.75,130.367"></path><path fill="none" stroke="#000" d="M323.5,122.593 L320.319,126.48"></path></g><g><path fill="none" stroke="#000" d="M309.5,148.375 L322.5,148.375"></path><path fill="none" stroke="#000" d="M309.5,148.375 L316,154.875"></path><path fill="none" stroke="#000" d="M322.25,148.875 L315.75,155.375"></path><path fill="none" stroke="#000" d="M316,148.375 L316,142.875"></path></g><g><path fill="none" stroke="#000" d="M273.353,128.559 L288.697,128.559"></path><path fill="none" stroke="#000" d="M269.125,135.059 L293.197,135.059"></path><path fill="none" stroke="#000" d="M269.375,135.309 L269.375,127.309"></path><path fill="none" stroke="#000" d="M292.625,135.059 L292.625,127.059"></path><text font-family="Geneva" font-size="10" text-anchor="middle" transform="matrix(1,0,-0,1,273.458,126.059)" xml:space="preserve"><tspan>+</tspan></text></g><g><path fill="none" stroke="#000" d="M275.125,140.5 L288.125,140.5"></path><path fill="none" stroke="#000" d="M275.125,140.5 L281.625,147"></path><path fill="none" stroke="#000" d="M287.875,141 L281.375,147.5"></path><path fill="none" stroke="#000" d="M281.625,140.5 L281.625,135"></path></g><g><path fill="none" stroke="#000" stroke-width="2.5" d="M252.125,116.75 L242.375,116.75"></path><use xlink:href="#arrow 4" fill="#000" transform="matrix(1.375,1.20206e-07,-1.20206e-07,1.375,252.125,116.75)"></use><path fill="none" stroke="#000" d="M255.875,109.75 L255.875,124.25"></path><path fill="none" stroke="#000" d="M255.875,117 L267.875,117"></path><path fill="none" stroke="#000" d="M230.375,116.75 L242.375,116.75"></path></g><g><path fill="none" stroke="#000" stroke-width="2.5" d="M230.44,128.241 L230.44,135.391"></path><use xlink:href="#arrow 4" fill="#000" transform="matrix(1.0381e-07,-1.375,1.375,1.0381e-07,230.44,128.241)"></use><path fill="none" stroke="#000" d="M225.25,125.491 L236,125.491"></path><path fill="none" stroke="#000" d="M230.625,125.491 L230.625,116.691"></path><path fill="none" stroke="#000" d="M230.44,144.191 L230.44,135.391"></path></g><g><path fill="none" stroke="#000" d="M224,147.125 L237,147.125"></path><path fill="none" stroke="#000" d="M224,147.125 L230.5,153.625"></path><path fill="none" stroke="#000" d="M236.75,147.625 L230.25,154.125"></path><path fill="none" stroke="#000" d="M230.5,147.125 L230.5,141.625"></path></g><g><path fill="none" stroke="#000" d="M209.993,113 L205.717,119.5"></path><path fill="none" stroke="#000" d="M201.441,113 L205.717,119.5"></path><path fill="none" stroke="#000" d="M201.441,113 L197.164,119.5"></path><path fill="none" stroke="#000" d="M192.888,113 L197.164,119.5"></path><path fill="none" stroke="#000" d="M192.888,112.5 L188.612,119"></path><path fill="none" stroke="#000" d="M184.336,112.5 L188.612,119"></path><path fill="none" stroke="#000" d="M209.993,113 L212.625,117"></path><path fill="none" stroke="#000" d="M184.336,112.5 L181.375,117"></path></g><g><path fill="none" stroke="#000" d="M157.743,113.75 L153.467,120.25"></path><path fill="none" stroke="#000" d="M149.191,113.75 L153.467,120.25"></path><path fill="none" stroke="#000" d="M149.191,113.75 L144.914,120.25"></path><path fill="none" stroke="#000" d="M140.638,113.75 L144.914,120.25"></path><path fill="none" stroke="#000" d="M140.638,113.25 L136.362,119.75"></path><path fill="none" stroke="#000" d="M132.086,113.25 L136.362,119.75"></path><path fill="none" stroke="#000" d="M157.743,113.75 L160.375,117.75"></path><path fill="none" stroke="#000" d="M132.086,113.25 L129.125,117.75"></path></g><g><path fill="none" stroke="#000" d="M112.493,114 L108.217,120.5"></path><path fill="none" stroke="#000" d="M103.941,114 L108.217,120.5"></path><path fill="none" stroke="#000" d="M103.941,114 L99.6645,120.5"></path><path fill="none" stroke="#000" d="M95.3882,114 L99.6645,120.5"></path><path fill="none" stroke="#000" d="M95.3882,113.5 L91.1118,120"></path><path fill="none" stroke="#000" d="M86.8355,113.5 L91.1118,120"></path><path fill="none" stroke="#000" d="M112.493,114 L115.125,118"></path><path fill="none" stroke="#000" d="M86.8355,113.5 L83.875,118"></path></g><path fill="none" stroke="#000" d="M181.375,116.691 L160,116.691"></path><g><path fill="none" stroke="#000" d="M118.625,107.5 L118.625,88.5"></path><path fill="none" stroke="#000" d="M126.125,106.5 C124.192,106.5,122.625,102.694,122.625,98 C122.625,93.3056,124.192,89.5,126.125,89.5"></path></g><text font-family="Geneva" font-size="12" transform="matrix(1,0,-0,1,35.125,153.625)" xml:space="preserve"><tspan>L</tspan></text><g><path fill="none" stroke="#000" d="M59.1962,162.625 L72.1963,162.625"></path><path fill="none" stroke="#000" d="M59.1962,162.625 L65.6962,169.125"></path><path fill="none" stroke="#000" d="M71.9463,163.125 L65.4462,169.625"></path><path fill="none" stroke="#000" d="M65.6962,162.625 L65.6962,157.125"></path></g><text font-family="Geneva" font-size="10" transform="matrix(1,0,-0,1,6,130)" xml:space="preserve"><tspan>Mains</tspan><tspan y="13" x="0">Power</tspan></text><text font-family="Geneva" font-size="12" text-anchor="middle" transform="matrix(1,0,-0,1,142.708,36)" xml:space="preserve"><tspan>Revision 3</tspan><tspan y="16" x="0">Seen in 120V machines made</tspan><tspan y="32" x="0">2006 September and 2008 early September</tspan></text></svg>